<svg width="29" height="28" viewBox="0 0 29 28" fill="none" xmlns="http://www.w3.org/2000/svg">
<g id="Ig">
<ellipse id="Ellipse 2" cx="14.5" cy="14" rx="14.5" ry="14" fill="white"/>
<g id="Instagram">
<path id="Vector" d="M17.8986 19.2069H11.3061C10.3951 19.2069 9.65088 18.4627 9.65088 17.5517V10.9592C9.65088 10.0482 10.3951 9.30396 11.3061 9.30396H17.8986C18.8096 9.30396 19.5539 10.0482 19.5539 10.9592V17.5517C19.5539 18.4668 18.8137 19.2069 17.8986 19.2069Z" fill="#740DF9"/>
<path id="Vector_2" d="M14.6043 16.7992C13.9252 16.7992 13.2866 16.5349 12.8067 16.055C12.3269 15.5751 12.0625 14.9366 12.0625 14.2574C12.0625 13.5782 12.3269 12.9397 12.8067 12.4598C13.2866 11.9799 13.9252 11.7156 14.6043 11.7156C15.2835 11.7156 15.922 11.9799 16.4019 12.4598C16.8818 12.9397 17.1462 13.5782 17.1462 14.2574C17.1462 14.9366 16.8818 15.5751 16.4019 16.055C15.918 16.5349 15.2835 16.7992 14.6043 16.7992ZM14.6043 12.2565C13.5022 12.2565 12.6034 13.1512 12.6034 14.2574C12.6034 15.3596 13.4981 16.2583 14.6043 16.2583C15.7065 16.2583 16.6053 15.3636 16.6053 14.2574C16.6012 13.1553 15.7065 12.2565 14.6043 12.2565Z" fill="white"/>
<path id="Vector_3" d="M17.6419 11.6322C17.9114 11.6322 18.1299 11.4137 18.1299 11.1442C18.1299 10.8746 17.9114 10.6561 17.6419 10.6561C17.3723 10.6561 17.1538 10.8746 17.1538 11.1442C17.1538 11.4137 17.3723 11.6322 17.6419 11.6322Z" fill="white"/>
</g>
</g>
</svg>
