<svg width="92" height="89" viewBox="0 0 92 89" fill="none" xmlns="http://www.w3.org/2000/svg">
<g id="Property 1=Variant2">
<path id="Ellipse 2" d="M89.0452 44.5827C89.0452 67.5278 69.7549 86.2769 45.7726 86.2769C21.7904 86.2769 2.5 67.5278 2.5 44.5827C2.5 21.6375 21.7904 2.88843 45.7726 2.88843C69.7549 2.88843 89.0452 21.6375 89.0452 44.5827Z" fill="#740DF9" stroke="white" stroke-width="5"/>
<g id="Instagram">
<path id="Vector" d="M56.5008 61.0196H35.69C32.8142 61.0196 30.4648 58.6703 30.4648 55.7945V34.9837C30.4648 32.1079 32.8142 29.7585 35.69 29.7585H56.5008C59.3765 29.7585 61.7259 32.1079 61.7259 34.9837V55.7945C61.7259 58.6831 59.3894 61.0196 56.5008 61.0196Z" fill="white"/>
<path id="Vector_2" d="M46.102 53.4191C43.958 53.4191 41.9424 52.5846 40.4275 51.0697C38.9126 49.5548 38.0781 47.5392 38.0781 45.3952C38.0781 43.2512 38.9126 41.2356 40.4275 39.7207C41.9424 38.2058 43.958 37.3713 46.102 37.3713C48.246 37.3713 50.2616 38.2058 51.7765 39.7207C53.2914 41.2356 54.1259 43.2512 54.1259 45.3952C54.1259 47.5392 53.2914 49.5548 51.7765 51.0697C50.2488 52.5846 48.246 53.4191 46.102 53.4191ZM46.102 39.0788C42.6229 39.0788 39.7856 41.9032 39.7856 45.3952C39.7856 48.8744 42.61 51.7116 46.102 51.7116C49.5812 51.7116 52.4184 48.8872 52.4184 45.3952C52.4056 41.9161 49.5812 39.0788 46.102 39.0788Z" fill="#740DF9"/>
<path id="Vector_3" d="M55.69 37.1086C56.5409 37.1086 57.2307 36.4188 57.2307 35.568C57.2307 34.7171 56.5409 34.0273 55.69 34.0273C54.8392 34.0273 54.1494 34.7171 54.1494 35.568C54.1494 36.4188 54.8392 37.1086 55.69 37.1086Z" fill="#740DF9"/>
</g>
</g>
</svg>
