<svg width="89" height="89" viewBox="0 0 89 89" fill="none" xmlns="http://www.w3.org/2000/svg">
<g id="Property 1=Variant2">
<circle id="Ellipse 10" cx="44.1943" cy="44.5827" r="41.6943" fill="#740DF9" stroke="white" stroke-width="5"/>
<path id="TikTok" d="M51.6813 30.12L50.7999 28.7991H45.466V40.6961L45.4478 52.3168C45.4569 52.4031 45.466 52.4981 45.466 52.5844C45.466 55.4939 42.9762 57.8682 39.9049 57.8682C36.8336 57.8682 34.3438 55.5026 34.3438 52.5844C34.3438 49.6749 36.8336 47.3007 39.9049 47.3007C40.541 47.3007 41.1588 47.413 41.7313 47.6029V41.8012C41.1407 41.7062 40.5319 41.6544 39.9049 41.6544C33.5714 41.663 28.4102 46.5669 28.4102 52.5931C28.4102 58.6193 33.5714 63.5231 39.914 63.5231C46.2565 63.5231 51.4178 58.6193 51.4178 52.5931V38.7708C53.7167 40.9551 56.6881 43.0876 59.9775 43.7696V37.8384C56.4064 36.3361 52.8535 31.8985 51.6813 30.12Z" fill="white"/>
</g>
</svg>
