<svg width="28" height="28" viewBox="0 0 28 28" fill="none" xmlns="http://www.w3.org/2000/svg">
<g id="TikTok">
<circle id="Ellipse 10" cx="14" cy="14" r="14" fill="white"/>
<path id="TikTok_2" d="M16.3719 9.41845L16.0927 9H14.403V12.7688L14.3972 16.45C14.4001 16.4774 14.403 16.5075 14.403 16.5348C14.403 17.4565 13.6143 18.2086 12.6413 18.2086C11.6684 18.2086 10.8797 17.4592 10.8797 16.5348C10.8797 15.6131 11.6684 14.861 12.6413 14.861C12.8428 14.861 13.0386 14.8966 13.2199 14.9567V13.1188C13.0328 13.0888 12.84 13.0724 12.6413 13.0724C10.635 13.0751 9 14.6285 9 16.5375C9 18.4465 10.635 20 12.6442 20C14.6534 20 16.2884 18.4465 16.2884 16.5375V12.1589C17.0167 12.8508 17.958 13.5264 19 13.7424V11.8635C17.8687 11.3876 16.7432 9.98185 16.3719 9.41845Z" fill="#740DF9"/>
</g>
</svg>
